<svg width="92" height="52" viewBox="0 0 92 52" fill="none" xmlns="http://www.w3.org/2000/svg">
<path d="M22.7734 36.7246V41H7.06836V36.7246H22.7734ZM8.57227 9.71875V41H3.17969V9.71875H8.57227ZM34.1688 17.7539V41H28.9695V17.7539H34.1688ZM28.6258 11.6523C28.6258 10.8646 28.8836 10.2129 29.3992 9.69727C29.9292 9.16732 30.6596 8.90234 31.5906 8.90234C32.5073 8.90234 33.2306 9.16732 33.7605 9.69727C34.2905 10.2129 34.5555 10.8646 34.5555 11.6523C34.5555 12.4258 34.2905 13.0703 33.7605 13.5859C33.2306 14.1016 32.5073 14.3594 31.5906 14.3594C30.6596 14.3594 29.9292 14.1016 29.3992 13.5859C28.8836 13.0703 28.6258 12.4258 28.6258 11.6523ZM47.1754 22.7168V41H41.9977V17.7539H46.8746L47.1754 22.7168ZM46.2516 28.5176L44.5758 28.4961C44.5901 26.849 44.8193 25.3379 45.2633 23.9629C45.7216 22.5879 46.3518 21.4062 47.1539 20.418C47.9703 19.4297 48.9443 18.6706 50.0758 18.1406C51.2073 17.5964 52.4677 17.3242 53.857 17.3242C54.9742 17.3242 55.984 17.4818 56.8863 17.7969C57.803 18.0977 58.5836 18.5918 59.2281 19.2793C59.887 19.9668 60.3883 20.862 60.732 21.9648C61.0758 23.0534 61.2477 24.3926 61.2477 25.9824V41H56.0484V25.9609C56.0484 24.8438 55.8837 23.9629 55.5543 23.3184C55.2392 22.6595 54.7737 22.194 54.1578 21.9219C53.5563 21.6354 52.8043 21.4922 51.902 21.4922C51.0139 21.4922 50.219 21.6784 49.5172 22.0508C48.8154 22.4232 48.221 22.9316 47.734 23.5762C47.2613 24.2207 46.8961 24.9655 46.6383 25.8105C46.3805 26.6556 46.2516 27.5579 46.2516 28.5176ZM83.6215 17.7539H88.3266V40.3555C88.3266 42.4466 87.8826 44.2227 86.9945 45.6836C86.1065 47.1445 84.8676 48.2546 83.2777 49.0137C81.6879 49.7871 79.8474 50.1738 77.7562 50.1738C76.8682 50.1738 75.8799 50.0449 74.7914 49.7871C73.7172 49.5293 72.6716 49.1139 71.6547 48.541C70.6521 47.9824 69.8142 47.2448 69.141 46.3281L71.5687 43.2773C72.3995 44.2656 73.3161 44.9889 74.3187 45.4473C75.3214 45.9056 76.3741 46.1348 77.477 46.1348C78.6658 46.1348 79.6755 45.9128 80.5062 45.4688C81.3513 45.0391 82.003 44.4017 82.4613 43.5566C82.9197 42.7116 83.1488 41.6803 83.1488 40.4629V23.0176L83.6215 17.7539ZM67.8305 29.6348V29.1836C67.8305 27.4219 68.0453 25.8177 68.475 24.3711C68.9047 22.9102 69.5206 21.6569 70.3227 20.6113C71.1247 19.5514 72.0987 18.7422 73.2445 18.1836C74.3904 17.6107 75.6866 17.3242 77.1332 17.3242C78.6371 17.3242 79.919 17.5964 80.9789 18.1406C82.0531 18.6849 82.9483 19.4655 83.6645 20.4824C84.3806 21.485 84.9392 22.6882 85.3402 24.0918C85.7556 25.4811 86.0635 27.028 86.2641 28.7324V30.1719C86.0779 31.8333 85.7628 33.3516 85.3187 34.7266C84.8747 36.1016 84.2875 37.2904 83.557 38.293C82.8266 39.2956 81.9242 40.069 80.85 40.6133C79.7901 41.1576 78.5368 41.4297 77.0902 41.4297C75.6723 41.4297 74.3904 41.1361 73.2445 40.5488C72.113 39.9616 71.1391 39.138 70.3227 38.0781C69.5206 37.0182 68.9047 35.7721 68.475 34.3398C68.0453 32.8932 67.8305 31.3249 67.8305 29.6348ZM73.0082 29.1836V29.6348C73.0082 30.6947 73.1085 31.6829 73.309 32.5996C73.5238 33.5163 73.8461 34.3255 74.2758 35.0273C74.7198 35.7148 75.2784 36.2591 75.9516 36.6602C76.6391 37.0469 77.4483 37.2402 78.3793 37.2402C79.5967 37.2402 80.5922 36.9824 81.3656 36.4668C82.1534 35.9512 82.7549 35.2565 83.1703 34.3828C83.6 33.4948 83.9008 32.5065 84.0727 31.418V27.5293C83.9867 26.6842 83.8077 25.8965 83.5355 25.166C83.2777 24.4355 82.9268 23.7982 82.4828 23.2539C82.0388 22.6953 81.4802 22.2656 80.807 21.9648C80.1339 21.6497 79.3389 21.4922 78.4223 21.4922C77.4913 21.4922 76.682 21.6927 75.9945 22.0938C75.307 22.4948 74.7413 23.0462 74.2973 23.748C73.8676 24.4499 73.5453 25.2663 73.3305 26.1973C73.1156 27.1283 73.0082 28.1237 73.0082 29.1836Z" fill="#C2C7D0"/>
</svg>
